<svg width="24" height="24" viewBox="0 0 24 24" fill="none" xmlns="http://www.w3.org/2000/svg">
<path d="M12 18C16 18 17 14 17 14H7C7 14 8 18 12 18Z" fill="white"/>
<path d="M12 22C17.514 22 22 17.514 22 12C22 6.486 17.514 2 12 2C6.486 2 2 6.486 2 12C2 17.514 6.486 22 12 22ZM12 4C16.411 4 20 7.589 20 12C20 16.411 16.411 20 12 20C7.589 20 4 16.411 4 12C4 7.589 7.589 4 12 4Z" fill="white"/>
<path d="M8.53504 12.634L10.585 10.551C10.7245 10.4116 10.8347 10.2458 10.9094 10.0634C10.9841 9.88091 11.0217 9.6854 11.02 9.48824C11.0184 9.29109 10.9774 9.09624 10.8997 8.91507C10.8219 8.7339 10.7088 8.57003 10.567 8.43302C10.2939 8.16165 9.92635 8.00654 9.54139 8.0002C9.15642 7.99386 8.78395 8.13679 8.50204 8.39902C8.21592 8.14015 7.84044 8.00254 7.4548 8.01523C7.06916 8.02791 6.70353 8.1899 6.43504 8.46702C5.84904 9.06702 5.85604 9.99702 6.45404 10.584L8.53504 12.634ZM15.535 12.634L17.585 10.551C17.7245 10.4116 17.8347 10.2458 17.9094 10.0634C17.9841 9.88091 18.0217 9.6854 18.02 9.48824C18.0184 9.29109 17.9774 9.09624 17.8997 8.91507C17.8219 8.7339 17.7088 8.57003 17.567 8.43302C17.2939 8.16165 16.9264 8.00654 16.5414 8.0002C16.1564 7.99386 15.784 8.13679 15.502 8.39902C15.216 8.13972 14.8404 8.00175 14.4545 8.01425C14.0686 8.02675 13.7027 8.18875 13.434 8.46602C12.848 9.06602 12.855 9.99602 13.453 10.583L15.535 12.634Z" fill="white"/>
</svg>
